<?xml version="1.0" standalone="no"?>
<!DOCTYPE svg PUBLIC "-//W3C//DTD SVG 20010904//EN"
 "http://www.w3.org/TR/2001/REC-SVG-20010904/DTD/svg10.dtd">
<svg version="1.0" xmlns="http://www.w3.org/2000/svg"
 width="65.000000pt" height="65.000000pt" viewBox="0 0 65.000000 65.000000"
 preserveAspectRatio="xMidYMid meet">
<metadata>
Created by potrace 1.10, written by Peter Selinger 2001-2011
</metadata>
<g transform="translate(0.000000,65.000000) scale(0.100000,-0.100000)"
fill="#000000" stroke="none">
<path d="M279 387 l-23 -35 -18 29 c-17 27 -48 40 -48 19 0 -20 24 -60 37 -60
9 0 13 -15 13 -50 0 -43 3 -50 20 -50 16 0 20 7 20 35 0 19 10 55 22 80 16 33
19 48 11 56 -8 8 -17 2 -34 -24z"/>
<path d="M330 363 c-33 -51 -32 -76 2 -106 15 -12 36 -17 79 -16 33 1 61 5 64
8 2 4 1 26 -2 49 -6 41 -6 42 -44 42 -32 0 -39 -3 -39 -20 0 -14 7 -20 22 -20
16 0 19 -3 11 -11 -15 -15 -64 -7 -76 13 -8 12 -7 24 1 44 12 25 16 26 57 20
35 -4 45 -3 45 9 0 18 -31 35 -65 35 -20 0 -32 -11 -55 -47z"/>
</g>
</svg>
