 <svg  version="1.0" xmlns="http://www.w3.org/2000/svg"  width="300.000000pt" height="300.000000pt" viewBox="0 0 300.000000 300.000000"  preserveAspectRatio="xMidYMid meet">  <g transform="translate(0.000000,300.000000) scale(0.100000,-0.100000)" fill="#ffffff" stroke="none"> <path d="M1695 1908 c-59 -10 -97 -41 -143 -116 -17 -29 -32 -56 -32 -59 0 -4 -7 -14 -16 -24 -9 -10 -23 -31 -32 -48 -10 -17 -37 -65 -61 -107 -41 -73 -43 -81 -37 -131 17 -142 131 -271 287 -323 90 -30 146 -32 226 -8 107 32 110 32 139 9 29 -23 94 -28 138 -11 36 13 43 51 45 237 2 165 -7 218 -40 239 -8 5 -81 9 -163 11 -166 2 -194 -5 -221 -57 -18 -34 -19 -60 -4 -93 15 -33 44 -48 105 -54 58 -6 64 -11 37 -35 -101 -88 -255 -52 -318 76 -14 27 -25 62 -25 76 0 51 30 116 73 157 46 45 91 62 153 58 41 -2 114 -31 114 -45 0 -4 18 -15 40 -25 76 -34 150 11 150 90 0 30 -9 44 -48 84 -69 69 -139 99 -237 104 -44 2 -102 0 -130 -5z m256 -50 c65 -33 126 -88 135 -124 8 -32 -21 -74 -60 -87 -23 -8 -35 -4 -79 26 -78 52 -91 57 -157 57 -275 0 -317 -402 -48 -459 90 -20 167 7 233 81 l40 43 -94 5 c-87 5 -95 7 -114 32 -23 30 -18 67 13 98 18 18 34 20 178 20 110 0 162 -4 170 -12 9 -9 12 -70 12 -215 0 -229 2 -223 -81 -223 -47 0 -79 21 -79 52 0 11 -3 18 -7 16 -152 -78 -266 -85 -399 -24 -103 47 -201 173 -218 282 -7 38 -2 49 107 230 103 171 118 191 158 212 39 20 56 23 139 20 80 -3 104 -7 151 -30z"/> <path d="M860 1890 c-24 -24 -26 -68 -5 -113 16 -34 36 -69 46 -77 3 -3 19 -29 35 -59 44 -82 75 -111 119 -111 l38 0 -8 -42 c-14 -71 -8 -343 7 -375 7 -15 18 -28 23 -29 6 0 18 -4 28 -8 9 -5 36 -5 60 -2 33 5 47 14 65 39 20 30 22 45 22 164 0 137 4 155 55 238 14 22 37 61 51 88 15 26 31 47 36 47 4 0 8 4 8 9 0 6 15 36 34 68 47 80 54 121 26 156 -20 25 -27 27 -89 27 -80 0 -83 -2 -162 -137 -30 -51 -62 -94 -71 -97 -10 -2 -18 1 -18 7 0 6 -22 48 -50 94 -27 46 -50 87 -50 91 0 4 -13 15 -29 25 -43 25 -145 23 -171 -3z m222 -120 c37 -63 68 -125 68 -136 0 -12 -13 -36 -29 -53 -36 -38 -78 -41 -108 -8 -29 32 -153 246 -153 265 0 36 31 53 94 50 l61 -3 67 -115z m400 103 c10 -9 18 -23 18 -31 0 -8 -54 -106 -120 -217 l-120 -204 0 -145 c0 -169 -3 -176 -80 -176 -78 0 -80 5 -80 198 l0 166 117 201 c64 110 123 206 131 213 23 18 112 15 134 -5z"/> <path d="M1209 1055 c-3 -2 -28 -5 -57 -6 -28 -2 -52 -5 -51 -8 0 -3 4 -15 9 -26 8 -19 9 -19 9 3 1 27 9 28 27 5 13 -17 13 -17 14 0 0 12 8 17 30 17 31 0 43 -19 13 -21 -15 0 -15 -2 2 -9 17 -7 17 -9 3 -9 -10 -1 -18 -5 -18 -10 0 -5 8 -12 18 -14 13 -4 11 -5 -5 -6 -19 -1 -23 4 -24 32 l-1 32 -10 -32 c-12 -36 -25 -43 -30 -15 -3 15 -5 14 -16 -5 l-12 -23 157 2 c87 1 146 3 131 5 -16 3 -28 9 -28 16 0 8 -3 8 -12 -1 -7 -7 -20 -12 -30 -12 -14 0 -18 8 -18 35 0 27 4 35 18 35 10 0 23 -5 30 -12 9 -9 12 -9 12 0 0 7 13 12 30 12 22 0 33 -6 40 -22 l9 -23 7 22 c5 17 15 23 48 25 22 2 -29 4 -115 4 -86 1 -161 4 -166 7 -6 4 -12 5 -14 2z m66 -50 c0 -23 -5 -31 -22 -33 -20 -3 -23 1 -23 33 0 32 3 36 23 33 17 -2 22 -10 22 -33z"/> <path d="M1794 1051 c-2 -2 -47 -3 -99 -2 -123 1 -145 -4 -145 -35 0 -13 5 -24 10 -24 6 0 10 9 10 20 0 26 27 37 51 21 12 -7 19 -7 19 -1 0 16 40 11 47 -6 3 -9 -3 -23 -15 -35 -28 -25 -35 -24 -28 4 l6 22 -11 -22 c-10 -18 -20 -22 -60 -21 -47 0 -49 1 -49 29 0 22 -4 27 -16 22 -11 -4 -12 -8 -4 -13 9 -6 9 -9 -1 -13 -12 -4 -11 -7 1 -16 12 -9 11 -11 -7 -11 -18 0 -23 6 -24 28 l-1 27 -10 -27 c-12 -36 -23 -35 -38 1 -8 21 -17 28 -28 24 -13 -6 -13 -8 4 -14 17 -7 17 -8 2 -8 -10 -1 -18 -4 -18 -9 0 -10 51 -31 75 -31 11 0 58 0 105 1 47 0 94 1 105 1 11 0 43 -1 70 -2 93 -5 91 -6 87 42 l-3 42 21 -24 c19 -22 20 -22 20 -3 0 17 7 21 38 24 24 2 11 5 -36 8 -41 3 -75 3 -78 1z m-70 -33 l7 -23 11 23 c16 32 28 27 28 -13 0 -19 -4 -35 -10 -35 -5 0 -10 6 -10 13 0 8 -3 7 -10 -3 -7 -12 -10 -11 -16 5 -7 18 -8 18 -15 -1 -6 -14 -8 -9 -8 19 -1 41 13 50 23 15z m96 12 c0 -5 -8 -10 -17 -11 -15 0 -15 -2 2 -9 17 -7 17 -9 3 -9 -10 -1 -18 -5 -18 -10 0 -5 8 -12 18 -14 13 -4 11 -5 -5 -6 -20 -1 -23 4 -23 34 0 28 4 35 20 35 11 0 20 -4 20 -10z"/> <path d="M1594 1016 c-4 -10 -2 -22 4 -28 8 -8 13 -7 18 6 4 10 2 22 -4 28 -8 8 -13 7 -18 -6z"/> <path d="M1880 1001 c0 -36 -13 -40 -28 -8 l-11 22 0 -22 c-1 -27 13 -36 39 -28 21 7 28 49 10 60 -6 4 -10 -7 -10 -24z"/> <path d="M1320 999 c0 -24 23 -21 28 4 2 10 -3 17 -12 17 -10 0 -16 -9 -16 -21z"/> </g> </svg> 