<?xml version="1.0" standalone="no"?>
<!DOCTYPE svg PUBLIC "-//W3C//DTD SVG 20010904//EN"
 "http://www.w3.org/TR/2001/REC-SVG-20010904/DTD/svg10.dtd">
<svg version="1.0" xmlns="http://www.w3.org/2000/svg"
 width="120.000000pt" height="134.000000pt" viewBox="0 0 120.000000 134.000000"
 preserveAspectRatio="xMidYMid meet">
<metadata>
Created by potrace 1.10, written by Peter Selinger 2001-2011
</metadata>
<g transform="translate(0.000000,134.000000) scale(0.100000,-0.100000)"
fill="#000000" stroke="none">
<path d="M720 913 c-14 -2 -42 -11 -62 -20 -33 -14 -38 -14 -59 1 -38 26 -73
20 -107 -18 -16 -19 -32 -40 -35 -48 -4 -9 -11 -6 -26 12 -43 52 -66 70 -92
70 -29 0 -59 -27 -59 -55 0 -30 52 -123 77 -136 13 -7 23 -22 24 -33 0 -12 1
-53 2 -93 1 -39 5 -75 10 -79 4 -4 0 -15 -8 -24 -13 -14 -13 -17 0 -17 8 0 12
4 9 9 -5 8 8 12 37 9 39 -4 68 18 79 59 6 22 9 44 6 48 -3 4 -1 13 2 20 5 7
20 -6 42 -36 50 -67 115 -96 195 -88 33 3 65 6 70 7 6 0 26 -2 45 -5 58 -10
74 10 77 102 3 89 -10 138 -38 147 -16 5 -19 13 -15 37 7 43 -15 79 -61 104
-44 24 -77 32 -113 27z m-315 -90 c34 -57 28 -96 -12 -91 -20 2 -35 16 -59 58
-41 69 -43 88 -6 92 34 5 45 -3 77 -59z m184 53 c9 -11 0 -34 -44 -108 -53
-91 -55 -98 -55 -165 0 -79 -13 -100 -55 -89 -24 6 -25 9 -25 88 0 81 1 84 51
173 29 49 59 96 67 103 21 16 47 15 61 -2z m195 3 c22 -6 52 -24 68 -40 24
-24 27 -32 18 -49 -13 -25 -38 -25 -70 0 -33 26 -94 26 -130 0 -86 -61 -39
-200 67 -200 30 0 93 33 93 49 0 5 -16 11 -36 13 -44 4 -65 29 -48 56 8 12 27
18 70 20 105 6 104 7 104 -108 0 -98 0 -100 -25 -106 -17 -4 -32 -1 -45 11
-15 13 -22 14 -40 5 -30 -16 -123 -14 -157 3 -53 28 -103 95 -103 137 0 12 24
62 53 110 64 109 91 124 181 99z m-20 -105 c13 -5 10 -11 -14 -34 -34 -31 -38
-59 -14 -95 16 -24 15 -25 -6 -25 -12 0 -35 14 -52 30 -25 25 -29 35 -23 63
11 52 60 80 109 61z"/>
</g>
</svg>
